<?xml version="1.0" standalone="no"?>
<!DOCTYPE svg PUBLIC "-//W3C//DTD SVG 20010904//EN"
 "http://www.w3.org/TR/2001/REC-SVG-20010904/DTD/svg10.dtd">
<svg version="1.0" xmlns="http://www.w3.org/2000/svg"
 width="677.000000pt" height="677.000000pt" viewBox="0 0 677.000000 677.000000"
 preserveAspectRatio="xMidYMid meet">
<metadata>
Created by potrace 1.14, written by Peter Selinger 2001-2017
</metadata>
<g transform="translate(0.000000,677.000000) scale(0.100000,-0.100000)"
fill="#000000" stroke="none">
<path d="M4665 6649 c-154 -35 -296 -132 -379 -259 -81 -124 -107 -217 -102
-370 4 -117 27 -196 87 -296 73 -120 236 -245 352 -268 101 -21 132 -24 202
-21 270 11 508 208 568 471 67 288 -88 592 -358 706 -104 44 -267 60 -370 37z"/>
<path d="M2900 5575 c-170 -24 -316 -64 -471 -128 -686 -284 -1145 -979 -1132
-1717 1 -98 11 -233 18 -260 3 -8 7 -33 10 -55 20 -128 83 -320 157 -473 214
-442 610 -788 1083 -947 51 -17 201 -56 240 -62 17 -2 41 -6 55 -9 153 -27
413 -24 597 6 730 121 1347 714 1492 1437 30 150 35 196 35 363 1 168 -7 266
-30 375 -9 39 -18 80 -20 93 -13 67 -82 252 -131 352 -207 425 -575 760 -1013
923 -98 37 -229 74 -290 83 -19 2 -57 9 -85 15 -79 17 -406 19 -515 4z m429
-871 c189 -35 364 -128 503 -268 160 -160 249 -344 284 -584 9 -61 4 -188 -11
-273 -70 -401 -381 -714 -789 -794 -81 -16 -233 -17 -326 -3 -91 14 -232 62
-317 109 -265 146 -449 407 -496 702 -13 80 -14 255 -3 307 4 14 9 38 12 55
14 79 74 226 127 310 32 53 113 148 166 198 232 214 533 300 850 241z"/>
<path d="M4529 2115 c0 0 -2 -54 -3 -120 -4 -139 -10 -191 -37 -299 -110 -437
-426 -768 -838 -876 -124 -33 -372 -34 -491 -2 -330 89 -588 300 -745 612 -39
77 -95 228 -95 255 0 13 -55 15 -440 15 l-440 0 5 -57 c7 -67 41 -252 57 -303
185 -605 623 -1026 1223 -1176 19 -5 141 -26 230 -39 46 -7 317 -8 355 -1 14
3 48 7 75 11 28 3 68 10 90 15 22 5 51 11 65 14 91 19 232 69 340 121 392 188
692 512 853 920 36 91 81 252 92 335 4 25 10 65 15 89 9 47 6 355 -4 411 -15
83 1 75 -161 75 -80 0 -145 0 -146 0z"/>
</g>
</svg>
